<?xml version="1.0" encoding="utf-8"?>
<!DOCTYPE svg PUBLIC "-//W3C//DTD SVG 20010904//EN" "http://www.w3.org/TR/2001/REC-SVG-20010904/DTD/svg10.dtd">
<svg version="1.0" xmlns="http://www.w3.org/2000/svg" width="738pt" height="688pt" viewBox="0 0 738 688" preserveAspectRatio="xMidYMid meet">
<g fill="#030308FF">
<path d="M 703.50 651.16 C 703.31 650.97 690.63 650.63 675.32 650.41 C 649.50 650.03 630.16 649.69 572.00 648.57 C 519.76 647.56 491.09 646.99 468.50 646.49 C 455.30 646.20 434.15 645.75 421.50 645.49 C 408.85 645.23 391.30 644.76 382.50 644.44 C 373.70 644.13 365.60 643.91 364.50 643.96 C 355.32 644.39 287.72 643.42 255.00 642.38 C 245.93 642.09 230.18 641.70 220.00 641.50 C 163.14 640.42 133.40 639.80 124.50 639.52 C 113.63 639.17 114.06 639.18 104.25 639.30 C 100.54 639.35 94.58 639.20 91.00 638.97 C 87.42 638.74 80.00 638.62 74.50 638.69 C 58.54 638.90 14.09 638.06 7.25 637.42 L 1.00 636.84 L 1.00 630.92 C 1.00 625.15 1.07 625.00 3.75 624.93 C 7.71 624.82 32.93 625.28 43.50 625.66 C 56.03 626.10 108.07 627.08 110.50 626.92 C 111.60 626.85 113.40 626.83 114.50 626.88 C 122.19 627.21 165.37 628.17 167.85 628.06 C 169.18 628.00 169.15 626.40 167.56 615.50 C 167.33 613.85 166.91 609.58 166.65 606.00 C 166.38 602.42 165.71 598.33 165.16 596.89 C 164.19 594.37 164.31 550.61 165.31 543.00 C 165.56 541.08 166.27 536.12 166.90 532.00 C 168.58 520.88 171.05 504.06 171.68 499.50 C 171.98 497.30 172.58 495.05 173.02 494.50 C 173.46 493.95 174.13 491.36 174.52 488.74 C 174.91 486.12 175.63 483.73 176.12 483.43 C 176.60 483.13 177.00 482.12 177.01 481.19 C 177.01 480.26 177.68 478.21 178.51 476.64 C 179.33 475.06 180.00 473.02 180.00 472.11 C 180.00 471.19 180.61 469.56 181.35 468.47 C 182.09 467.39 182.99 464.96 183.36 463.08 C 183.72 461.20 185.21 457.32 186.66 454.45 L 189.30 449.23 L 184.65 442.23 C 182.09 438.38 180.00 434.88 180.00 434.44 C 180.00 434.01 179.36 432.95 178.58 432.08 C 177.80 431.21 174.43 425.18 171.08 418.68 C 166.77 410.29 165.00 405.74 165.00 403.04 C 165.00 400.94 164.33 397.94 163.51 396.36 C 161.73 392.96 161.51 380.62 163.06 371.00 C 164.81 360.08 169.08 352.78 180.15 341.75 C 186.87 335.05 190.65 332.00 192.24 332.00 C 193.51 332.00 195.91 330.76 197.58 329.25 C 199.24 327.74 203.05 325.39 206.05 324.04 C 209.05 322.68 215.18 319.62 219.68 317.24 L 227.86 312.89 L 226.81 309.90 C 226.24 308.25 224.25 305.28 222.38 303.31 C 220.52 301.33 219.00 299.47 219.00 299.17 C 219.00 298.87 218.17 297.70 217.16 296.56 C 216.15 295.43 214.73 292.93 214.00 291.00 C 213.27 289.07 212.15 286.82 211.51 286.00 C 209.20 283.03 206.06 276.96 204.41 272.27 C 202.80 267.72 202.32 265.69 199.84 253.00 C 198.30 245.10 198.66 228.02 200.47 222.81 C 201.29 220.44 201.98 217.90 201.99 217.16 C 201.99 216.42 202.90 214.67 204.00 213.27 C 205.10 211.87 206.00 209.72 206.00 208.49 C 206.00 207.25 206.68 205.68 207.50 205.00 C 208.33 204.32 209.00 203.30 209.00 202.74 C 209.00 201.93 213.19 196.70 217.81 191.76 C 219.31 190.15 224.83 186.00 225.46 186.00 C 225.84 186.00 228.25 184.24 230.82 182.09 C 233.43 179.91 237.78 177.51 240.66 176.67 C 243.50 175.84 246.89 174.46 248.20 173.61 C 249.50 172.75 252.74 171.87 255.40 171.65 C 258.05 171.43 260.52 170.77 260.88 170.19 C 261.25 169.60 264.46 168.90 268.02 168.61 C 271.58 168.33 276.42 167.63 278.78 167.04 C 281.18 166.44 288.84 166.15 296.28 166.36 C 310.55 166.78 319.00 166.23 319.00 164.87 C 319.00 164.41 319.65 163.23 320.44 162.26 C 321.23 161.29 323.82 157.95 326.19 154.84 C 342.68 133.19 359.41 114.55 369.01 107.15 C 377.09 100.92 389.12 97.19 397.23 98.41 C 400.55 98.91 402.70 100.15 406.53 103.83 C 411.60 108.70 418.04 119.81 418.67 124.77 C 421.53 147.49 422.69 163.83 421.98 171.50 C 421.07 181.35 421.77 186.21 424.00 185.50 C 424.96 185.20 427.03 185.47 428.62 186.11 C 430.20 186.75 433.30 187.62 435.50 188.05 C 437.70 188.47 443.32 190.21 448.00 191.90 C 452.68 193.59 457.29 194.98 458.26 194.99 C 459.23 194.99 460.81 195.44 461.76 195.97 C 462.72 196.51 465.07 197.63 467.00 198.47 C 470.41 199.96 482.34 206.49 488.97 210.50 C 490.79 211.60 493.39 213.70 494.74 215.18 L 497.20 217.85 L 503.66 213.43 C 507.22 210.99 510.72 209.00 511.44 209.00 C 512.16 209.00 513.27 208.38 513.89 207.63 C 514.52 206.88 517.16 205.47 519.76 204.50 C 522.37 203.53 525.93 201.67 527.68 200.37 C 529.43 199.06 531.77 198.00 532.88 198.00 C 533.98 198.00 536.37 197.13 538.19 196.07 C 540.01 195.01 544.65 193.38 548.50 192.44 C 552.35 191.50 556.40 190.38 557.50 189.95 C 559.45 189.18 562.72 188.54 572.15 187.10 C 574.71 186.70 577.72 186.72 578.84 187.14 C 579.95 187.55 582.78 188.08 585.11 188.31 C 588.56 188.66 590.14 189.56 593.52 193.15 C 599.57 199.54 601.63 206.00 602.51 221.25 C 602.97 229.36 602.88 234.46 602.24 235.25 C 601.70 235.94 600.92 239.19 600.52 242.48 C 600.12 245.77 599.19 250.05 598.45 251.98 C 597.71 253.92 596.60 257.47 595.98 259.87 C 595.36 262.28 594.37 265.43 593.78 266.87 C 593.18 268.32 592.80 270.51 592.92 271.75 C 593.04 272.99 592.66 274.00 592.07 274.00 C 591.48 274.00 591.00 274.59 591.00 275.31 C 591.00 276.03 590.10 278.49 589.00 280.76 C 587.90 283.04 587.00 286.00 587.00 287.35 C 587.00 288.69 585.88 290.85 584.52 292.15 C 583.15 293.44 582.03 295.04 582.02 295.70 C 582.01 296.36 581.21 297.36 580.25 297.93 C 579.17 298.57 578.88 299.26 579.50 299.73 C 581.72 301.44 587.00 308.99 587.00 310.46 C 587.00 311.32 588.35 314.42 590.00 317.35 C 591.65 320.27 593.00 323.31 593.00 324.11 C 593.00 324.90 593.90 326.33 595.00 327.27 C 596.27 328.35 597.00 330.22 597.00 332.37 C 597.00 334.23 597.63 336.28 598.40 336.92 C 599.70 337.99 600.69 342.77 601.27 350.66 C 601.40 352.40 601.84 354.17 602.25 354.58 C 603.39 355.72 603.16 377.78 602.00 378.50 C 601.45 378.84 601.00 380.65 601.00 382.51 C 601.00 384.49 599.95 387.45 598.50 389.60 C 597.12 391.62 596.00 394.50 596.00 395.99 C 596.00 397.50 594.89 399.91 593.50 401.41 C 592.12 402.89 591.00 404.74 591.00 405.53 C 591.00 406.31 589.92 407.66 588.60 408.52 C 587.29 409.39 585.98 410.97 585.70 412.03 C 585.42 413.10 584.02 414.42 582.60 414.96 C 581.17 415.51 580.00 416.40 580.00 416.95 C 580.00 417.50 578.65 418.65 577.00 419.50 C 575.35 420.35 573.98 421.60 573.95 422.28 C 573.89 423.62 563.44 429.04 560.95 429.01 C 560.10 429.01 558.87 429.53 558.22 430.18 C 557.58 430.82 555.16 431.53 552.84 431.74 C 550.53 431.96 547.48 432.73 546.07 433.45 C 543.15 434.95 541.62 435.12 530.50 435.15 C 518.65 435.19 506.85 434.27 503.67 433.07 C 497.52 430.73 496.52 432.56 500.00 439.76 C 501.10 442.04 502.00 444.57 502.00 445.39 C 502.00 446.21 502.45 447.16 503.00 447.50 C 503.55 447.84 504.00 449.10 504.00 450.31 C 504.00 451.51 504.87 455.20 505.93 458.50 C 513.84 483.04 514.59 509.12 507.56 514.95 C 506.70 515.66 506.00 516.76 506.00 517.39 C 506.00 519.62 494.81 528.96 488.95 531.61 C 481.00 535.22 477.60 536.54 469.50 539.19 C 459.75 542.38 444.20 545.91 439.68 545.97 C 438.14 545.99 436.03 546.45 434.99 547.00 C 433.96 547.55 432.88 547.62 432.59 547.14 C 432.30 546.67 430.48 546.78 428.55 547.38 L 425.04 548.48 L 425.63 553.99 C 425.95 557.02 427.29 563.31 428.61 567.96 C 429.92 572.61 431.00 577.86 431.00 579.62 C 431.00 581.39 431.46 582.99 432.03 583.18 C 432.60 583.37 433.75 586.22 434.59 589.51 C 435.42 592.80 436.99 597.41 438.05 599.74 C 439.12 602.07 440.00 604.57 440.00 605.30 C 440.00 606.03 440.95 608.60 442.12 611.01 C 443.28 613.42 444.31 615.89 444.40 616.51 C 444.49 617.13 445.75 620.08 447.20 623.07 C 448.65 626.06 450.30 629.69 450.85 631.15 L 451.87 633.80 L 464.93 633.65 C 472.12 633.57 478.00 633.83 478.00 634.24 C 478.00 634.65 486.89 634.95 497.75 634.91 C 519.13 634.83 584.50 636.07 600.50 636.86 C 601.60 636.92 608.35 636.96 615.50 636.96 C 622.65 636.96 639.30 637.26 652.50 637.62 C 665.70 637.99 683.70 638.35 692.50 638.42 C 701.30 638.49 714.91 638.65 722.75 638.78 L 737.00 639.00 L 737.00 645.54 L 737.00 652.07 L 720.43 651.79 C 711.32 651.63 703.70 651.35 703.50 651.16ZM 414.50 632.88 C 415.05 632.95 420.09 633.23 425.70 633.50 L 435.89 633.99 L 434.86 630.75 C 433.63 626.86 433.29 625.98 428.63 614.81 C 426.63 610.02 425.00 605.27 425.00 604.25 C 425.00 603.22 424.34 601.51 423.53 600.44 C 422.72 599.37 422.05 597.57 422.03 596.42 C 422.01 595.28 420.88 591.58 419.50 588.19 C 418.12 584.81 417.00 580.97 417.00 579.67 C 417.00 578.37 416.37 576.00 415.60 574.40 C 414.84 572.81 413.42 566.19 412.47 559.70 C 410.97 549.55 410.50 547.99 409.11 548.62 C 408.23 549.03 402.89 549.34 397.25 549.33 C 390.45 549.31 386.99 549.67 386.98 550.40 C 386.97 551.19 386.76 551.19 386.23 550.41 C 385.20 548.88 377.65 547.15 374.57 547.74 C 373.15 548.01 371.43 547.80 370.74 547.27 C 370.06 546.74 367.25 545.71 364.50 544.99 C 361.75 544.26 358.23 542.61 356.67 541.33 C 355.12 540.05 353.09 539.00 352.17 539.00 C 350.37 539.00 343.96 533.18 340.14 528.08 C 338.31 525.62 337.78 523.62 337.73 518.93 C 337.68 513.44 337.96 512.63 341.03 509.46 C 342.88 507.56 345.19 506.00 346.16 506.00 C 347.13 506.00 348.38 505.16 348.92 504.14 C 349.48 503.10 352.02 501.74 354.71 501.04 C 357.34 500.36 361.21 499.17 363.29 498.39 C 367.06 496.99 372.00 497.40 372.00 499.11 C 372.00 500.51 374.63 500.15 375.94 498.58 C 376.71 497.64 378.56 497.27 381.31 497.49 C 389.86 498.18 403.59 498.37 404.53 497.82 C 405.06 497.50 408.00 496.53 411.05 495.65 C 418.42 493.54 425.48 487.93 428.12 482.10 C 429.38 479.29 430.35 474.68 430.59 470.26 L 430.99 463.02 L 426.99 460.50 C 424.80 459.11 423.00 457.60 423.00 457.14 C 423.00 456.67 424.01 454.81 425.25 452.99 C 427.12 450.24 428.18 449.65 431.48 449.53 C 434.45 449.41 435.98 449.94 437.48 451.59 C 441.13 455.61 442.00 456.90 442.00 458.34 C 442.00 459.12 442.62 460.27 443.38 460.90 C 447.03 463.93 444.49 487.33 440.31 489.15 C 439.01 489.71 432.00 498.74 432.00 499.85 C 432.00 501.46 426.97 504.53 421.00 506.56 C 417.98 507.58 414.24 509.28 412.69 510.32 C 409.83 512.26 407.98 512.33 377.00 511.85 C 368.99 511.72 362.01 512.59 360.72 513.88 C 360.11 514.49 358.50 515.00 357.16 515.00 C 354.62 515.00 352.09 517.45 352.03 519.95 C 351.99 521.76 357.93 528.00 359.70 528.00 C 360.41 528.00 361.00 528.39 361.00 528.86 C 361.00 530.92 373.42 533.88 385.00 534.57 C 386.93 534.69 391.08 535.12 394.23 535.53 C 397.82 535.99 400.44 535.88 401.23 535.24 C 401.93 534.67 404.47 534.37 406.87 534.58 C 409.28 534.79 411.71 534.68 412.27 534.33 C 412.83 533.99 416.71 533.55 420.89 533.36 C 431.43 532.87 441.90 531.44 452.50 529.02 C 457.45 527.89 463.52 526.52 466.00 525.98 C 468.48 525.44 471.85 524.36 473.50 523.58 C 479.32 520.81 483.81 519.00 484.88 519.00 C 486.70 519.00 496.98 507.92 497.66 505.23 C 498.71 501.04 497.20 477.87 495.50 472.00 C 494.62 468.98 493.44 464.33 492.89 461.68 C 492.34 459.03 491.01 455.43 489.95 453.68 C 488.88 451.93 488.01 449.57 488.00 448.44 C 488.00 447.31 487.34 445.51 486.53 444.44 C 485.72 443.37 485.05 441.26 485.03 439.74 C 485.01 438.08 484.01 436.13 482.51 434.82 C 481.15 433.64 479.74 431.14 479.39 429.28 C 478.88 426.56 478.19 425.79 475.86 425.32 C 474.26 425.00 472.72 424.35 472.42 423.87 C 472.12 423.39 471.05 423.00 470.02 423.00 C 469.00 423.00 468.02 422.57 467.83 422.05 C 467.65 421.53 465.99 420.84 464.14 420.52 C 457.87 419.42 454.40 417.37 452.67 413.72 C 450.55 409.25 450.57 408.70 452.98 406.52 C 454.56 405.08 455.92 404.85 459.73 405.38 C 462.35 405.73 464.65 406.47 464.83 407.01 C 465.02 407.56 465.81 408.00 466.59 408.00 C 467.37 408.00 471.80 409.32 476.44 410.92 C 481.08 412.53 485.79 413.61 486.90 413.32 C 488.05 413.01 489.62 413.48 490.54 414.39 C 491.42 415.28 493.47 416.00 495.10 416.00 C 496.73 416.00 500.86 416.95 504.28 418.10 C 507.70 419.26 511.51 420.39 512.74 420.62 C 517.65 421.53 537.89 421.30 544.00 420.27 C 551.58 418.98 560.00 416.15 560.00 414.88 C 560.00 414.40 560.45 414.00 561.00 414.00 C 564.21 414.00 580.00 399.52 580.00 396.57 C 580.00 395.77 580.47 394.83 581.04 394.47 C 581.61 394.12 583.10 392.18 584.36 390.17 C 589.95 381.16 589.90 343.87 584.29 338.17 C 583.57 337.44 583.23 336.44 583.52 335.96 C 583.97 335.23 578.05 322.84 574.50 317.09 C 573.95 316.20 572.40 313.68 571.06 311.49 C 569.71 309.29 567.58 306.51 566.31 305.30 C 563.97 303.07 563.02 297.00 565.00 297.00 C 565.55 297.00 566.00 296.34 566.00 295.52 C 566.00 294.71 567.08 293.34 568.40 292.47 C 569.73 291.60 571.11 289.68 571.48 288.20 C 571.85 286.71 572.77 284.15 573.51 282.50 C 576.82 275.20 578.25 271.33 578.48 268.97 C 578.62 267.58 579.69 264.56 580.87 262.26 C 582.04 259.96 583.00 257.22 583.00 256.17 C 583.00 255.11 583.71 252.28 584.58 249.88 C 588.53 238.94 589.84 231.51 589.59 221.50 C 589.41 213.97 588.84 210.36 587.29 206.88 C 585.29 202.39 585.08 202.24 579.85 201.59 C 576.16 201.13 572.42 201.43 567.98 202.56 C 564.42 203.46 560.15 204.36 558.50 204.55 C 552.29 205.28 546.55 206.85 546.20 207.91 C 546.00 208.51 544.12 209.00 542.02 209.00 C 539.89 209.00 538.00 209.55 537.73 210.26 C 537.47 210.95 535.00 212.32 532.26 213.31 C 529.51 214.30 526.32 215.98 525.17 217.05 C 524.02 218.12 522.44 219.00 521.66 219.00 C 520.88 219.00 519.68 219.67 519.00 220.50 C 518.32 221.32 517.16 222.00 516.43 222.00 C 515.71 222.00 514.52 222.85 513.80 223.88 C 513.07 224.91 511.58 225.93 510.49 226.14 C 509.17 226.39 508.39 227.47 508.18 229.34 C 507.93 231.46 507.01 232.52 504.46 233.58 C 498.90 235.90 499.60 236.19 488.17 226.90 C 485.05 224.37 480.14 221.22 477.25 219.90 C 474.36 218.59 472.00 217.17 472.00 216.76 C 472.00 216.34 471.21 215.99 470.25 215.98 C 469.29 215.97 467.38 215.08 466.00 214.00 C 464.62 212.92 462.71 212.03 461.75 212.02 C 460.79 212.01 460.00 211.64 460.00 211.21 C 460.00 210.77 457.41 209.55 454.25 208.50 C 451.09 207.45 447.82 206.27 447.00 205.87 C 442.75 203.83 436.63 202.00 434.04 202.00 C 432.43 202.00 430.84 201.55 430.50 201.00 C 430.16 200.45 428.81 200.00 427.50 200.00 C 426.19 200.00 424.84 199.55 424.50 199.00 C 424.16 198.45 422.22 198.24 420.19 198.53 C 414.39 199.38 410.79 197.87 408.57 193.65 C 406.98 190.64 406.81 189.34 407.64 186.72 C 408.55 183.84 408.57 177.22 407.73 147.33 C 407.60 142.84 407.16 138.83 406.75 138.42 C 406.34 138.00 406.00 135.26 406.00 132.32 C 406.00 129.38 405.60 126.19 405.10 125.24 C 404.61 124.28 403.42 121.60 402.46 119.27 C 401.50 116.95 399.67 114.36 398.39 113.52 C 395.83 111.84 389.94 111.51 387.24 112.89 C 386.28 113.38 383.76 114.62 381.64 115.64 C 379.52 116.66 376.07 119.08 373.97 121.00 C 371.86 122.92 369.55 125.03 368.82 125.67 C 368.09 126.32 366.22 128.46 364.65 130.42 C 363.08 132.39 361.17 134.00 360.41 134.00 C 359.65 134.00 358.37 135.57 357.56 137.50 C 356.76 139.43 355.48 141.00 354.73 141.00 C 352.88 141.00 349.46 144.86 348.38 148.17 C 347.89 149.64 345.64 152.82 343.38 155.23 C 341.11 157.64 338.47 161.12 337.52 162.96 C 336.57 164.80 334.47 167.42 332.85 168.78 C 331.23 170.15 328.80 173.44 327.45 176.09 C 323.93 183.05 318.73 184.98 309.24 182.85 C 305.38 181.99 303.63 181.97 302.83 182.77 C 302.03 183.57 301.06 183.43 299.28 182.26 C 297.22 180.91 296.30 180.85 293.45 181.88 C 290.90 182.80 289.54 182.83 287.95 181.97 C 285.51 180.67 275.67 181.25 262.50 183.49 C 257.74 184.30 248.11 187.83 246.00 189.54 C 245.18 190.21 242.38 191.68 239.79 192.80 C 234.46 195.12 222.99 206.28 218.88 213.13 C 217.44 215.53 215.51 219.97 214.58 223.00 C 211.63 232.65 212.44 256.11 215.88 260.39 C 216.37 261.00 217.10 263.02 217.49 264.89 C 218.82 271.08 228.27 288.63 234.23 296.00 C 235.79 297.93 237.51 300.05 238.04 300.71 C 238.57 301.38 239.53 303.07 240.16 304.46 C 241.29 306.93 244.33 307.89 245.43 306.12 C 245.73 305.64 246.99 305.00 248.24 304.72 C 249.48 304.43 252.97 303.56 256.00 302.77 C 260.87 301.51 267.09 301.25 279.12 301.83 C 282.50 301.99 282.82 302.29 283.97 306.40 C 285.84 313.09 284.82 314.96 279.18 315.18 C 276.61 315.28 273.60 315.30 272.50 315.22 C 261.31 314.46 255.89 315.08 251.00 317.70 C 239.74 323.73 239.15 324.00 237.26 324.01 C 236.29 324.01 234.18 324.88 232.56 325.95 C 230.95 327.01 229.32 327.70 228.95 327.47 C 228.57 327.24 227.46 327.94 226.48 329.02 C 225.49 330.11 223.91 331.00 222.97 331.00 C 222.02 331.00 220.68 331.68 220.00 332.50 C 219.32 333.32 217.83 334.00 216.71 334.00 C 215.58 334.00 213.95 334.64 213.08 335.42 C 211.29 337.02 203.89 341.35 199.75 343.20 C 198.22 343.89 197.00 345.24 197.00 346.24 C 197.00 347.43 196.02 348.25 194.15 348.62 C 189.47 349.56 180.90 359.04 178.96 365.44 C 178.29 367.67 176.85 372.13 175.77 375.34 C 174.63 378.73 173.99 382.71 174.25 384.84 C 174.97 390.83 178.11 404.42 179.03 405.54 C 179.50 406.11 181.31 409.48 183.05 413.04 C 186.44 419.95 197.24 436.56 201.57 441.50 C 203.01 443.15 205.70 446.76 207.55 449.52 C 209.39 452.29 211.97 455.48 213.29 456.63 C 214.61 457.78 216.32 459.61 217.09 460.70 C 219.77 464.49 239.68 478.61 241.73 478.18 C 242.40 478.04 244.33 478.63 246.01 479.50 C 247.68 480.37 249.46 480.83 249.96 480.52 C 250.46 480.22 251.14 480.43 251.49 480.99 C 252.39 482.44 266.15 481.08 267.98 479.36 C 269.18 478.23 269.23 477.60 268.23 476.00 C 267.55 474.91 267.00 473.12 267.00 472.00 C 267.00 469.50 260.12 462.00 257.82 462.00 C 256.89 462.00 255.85 461.09 255.49 459.97 C 255.14 458.86 253.64 457.18 252.17 456.24 C 249.73 454.69 236.23 441.43 233.25 437.66 C 232.56 436.80 232.00 435.60 232.00 435.01 C 232.00 434.42 231.36 433.69 230.57 433.39 C 229.32 432.91 226.96 428.37 226.48 425.50 C 226.38 424.95 225.95 423.68 225.52 422.67 C 224.55 420.43 225.51 406.34 226.75 404.69 C 227.24 404.04 228.24 401.59 228.98 399.25 C 230.69 393.83 240.78 384.01 245.38 383.30 C 247.10 383.03 249.06 382.35 249.74 381.79 C 250.42 381.23 253.59 380.59 256.78 380.37 C 262.19 380.00 262.82 380.19 266.15 383.25 C 269.18 386.02 269.65 387.01 269.24 389.79 C 268.68 393.64 266.61 394.98 261.35 394.93 C 247.98 394.81 248.72 394.62 245.24 399.15 C 243.46 401.47 242.00 403.92 242.00 404.60 C 242.00 405.28 241.50 406.00 240.88 406.21 C 240.18 406.44 239.73 409.60 239.69 414.54 C 239.64 421.07 240.02 423.13 241.82 426.00 C 244.27 429.92 252.67 437.86 258.00 441.31 C 259.93 442.56 262.39 444.92 263.47 446.57 C 264.55 448.22 266.79 450.45 268.44 451.53 C 270.09 452.62 271.91 454.40 272.47 455.50 C 273.04 456.60 274.67 458.65 276.09 460.05 C 279.63 463.52 282.38 472.65 281.78 478.89 C 281.25 484.46 276.19 492.00 272.97 492.00 C 271.95 492.00 270.87 492.41 270.56 492.91 C 270.25 493.41 266.93 494.37 263.19 495.04 C 257.36 496.08 255.57 496.02 250.79 494.63 C 247.71 493.73 244.05 493.00 242.66 493.00 C 241.26 493.00 239.84 492.55 239.50 492.00 C 239.16 491.45 238.12 490.99 237.19 490.98 C 236.26 490.97 234.38 490.08 233.00 489.00 C 231.62 487.92 229.81 487.03 228.97 487.02 C 228.13 487.01 225.97 485.65 224.16 484.00 C 222.35 482.35 220.44 481.00 219.91 481.00 C 219.38 481.00 217.50 479.69 215.72 478.08 C 213.95 476.48 210.59 473.50 208.25 471.47 C 205.91 469.43 204.00 467.14 204.00 466.38 C 204.00 465.62 203.31 465.00 202.47 465.00 C 201.63 465.00 200.68 464.32 200.36 463.50 C 200.05 462.68 199.44 462.00 199.03 462.00 C 198.11 462.00 193.52 474.58 191.91 481.50 C 191.27 484.25 190.20 487.40 189.52 488.50 C 188.84 489.60 187.51 494.10 186.56 498.50 C 185.61 502.90 184.21 508.75 183.47 511.50 C 181.22 519.78 180.01 527.24 180.16 532.00 C 180.31 536.84 179.31 554.54 178.43 562.58 C 176.97 576.05 178.44 601.65 181.10 609.00 C 181.60 610.38 182.20 614.57 182.43 618.31 C 182.90 625.84 183.84 627.60 187.82 628.43 C 190.32 628.95 211.77 629.51 270.50 630.59 C 283.70 630.83 295.18 631.08 296.00 631.15 C 296.82 631.22 299.52 631.16 302.00 631.03 C 304.48 630.89 318.20 631.11 332.50 631.51 C 346.80 631.91 369.40 632.32 382.71 632.42 C 396.03 632.51 407.27 632.93 407.68 633.35 C 408.10 633.77 409.58 633.80 410.97 633.43 C 412.36 633.05 413.95 632.81 414.50 632.88Z"/></g>
<g fill="#D7E7FBFF">
<path d="M 407.64 632.30 C 407.19 631.86 396.18 631.41 383.17 631.29 C 370.15 631.18 349.15 630.84 336.50 630.55 C 323.85 630.25 298.65 629.80 280.50 629.53 C 197.97 628.34 185.67 627.89 184.52 626.03 C 184.23 625.57 183.77 622.10 183.49 618.34 C 183.21 614.58 182.53 610.13 181.98 608.46 C 181.43 606.79 180.77 602.74 180.50 599.46 C 180.24 596.18 179.65 590.12 179.19 586.00 C 178.46 579.28 178.53 574.28 179.52 563.00 C 180.50 551.91 181.10 543.30 181.54 533.80 C 182.04 523.17 182.62 519.12 185.00 509.50 C 189.70 490.51 189.70 490.50 191.47 490.66 C 192.59 490.76 192.87 490.47 192.25 489.85 C 191.63 489.23 191.97 486.31 193.18 481.69 C 195.76 471.90 195.97 471.57 195.29 478.50 C 194.96 481.80 194.20 484.83 193.60 485.23 C 192.84 485.74 192.89 485.97 193.75 485.98 C 194.48 485.99 195.00 487.30 195.00 489.14 C 195.00 491.20 195.86 493.07 197.50 494.59 C 198.88 495.86 200.00 497.74 200.00 498.76 C 200.00 500.59 203.79 504.00 207.25 505.29 C 208.21 505.64 209.00 506.63 209.00 507.47 C 209.00 508.31 209.68 509.00 210.51 509.00 C 212.01 509.00 216.03 510.92 217.00 512.11 C 217.70 512.96 225.01 514.40 230.81 514.83 C 232.34 514.94 232.88 515.42 232.41 516.25 C 231.86 517.23 231.99 517.24 233.00 516.30 C 234.01 515.36 235.01 515.40 237.52 516.44 C 239.28 517.18 241.26 517.46 241.91 517.05 C 242.57 516.65 245.19 516.24 247.75 516.14 C 250.31 516.05 252.65 515.58 252.95 515.11 C 253.25 514.63 255.43 513.92 257.79 513.53 C 260.15 513.13 264.36 511.28 267.14 509.41 C 269.92 507.53 272.44 506.00 272.74 506.00 C 273.03 506.00 274.42 504.76 275.82 503.25 C 277.22 501.74 278.24 500.50 278.09 500.50 C 277.94 500.50 278.36 499.30 279.03 497.83 C 279.85 496.04 280.76 495.35 281.80 495.75 C 282.98 496.21 283.18 495.91 282.64 494.50 C 282.25 493.49 282.38 492.38 282.93 492.04 C 283.48 491.71 283.67 490.44 283.35 489.23 C 283.03 488.01 282.33 487.30 281.79 487.63 C 281.23 487.98 281.28 487.35 281.90 486.19 C 282.51 485.06 283.07 482.86 283.15 481.32 C 283.25 479.36 283.51 479.87 284.00 483.00 C 284.66 487.25 284.71 487.30 284.86 484.00 C 284.95 482.07 285.32 479.42 285.67 478.09 C 286.12 476.41 285.97 475.90 285.16 476.40 C 284.46 476.83 284.00 476.47 284.00 475.50 C 284.00 474.61 284.40 474.13 284.89 474.43 C 285.37 474.73 286.39 474.22 287.14 473.30 C 288.28 471.89 288.28 471.75 287.14 472.43 C 286.09 473.06 285.93 472.71 286.43 470.88 L 287.08 468.50 L 285.68 470.90 C 284.68 472.60 284.13 472.90 283.80 471.91 C 283.55 471.14 283.94 469.92 284.67 469.19 C 285.40 468.46 286.00 467.36 286.00 466.76 C 286.00 466.16 285.73 465.94 285.39 466.27 C 284.16 467.51 282.19 464.53 283.11 462.81 C 283.68 461.74 283.56 460.08 282.80 458.31 C 281.14 454.45 281.03 454.36 279.89 456.03 C 279.16 457.10 278.97 456.37 279.21 453.37 C 279.46 450.12 279.23 449.36 278.10 449.79 C 277.16 450.15 276.93 449.92 277.42 449.13 C 277.83 448.46 277.64 447.28 277.00 446.50 C 276.36 445.72 276.06 444.71 276.34 444.26 C 276.62 443.80 275.65 442.89 274.18 442.24 C 272.71 441.58 270.90 439.68 270.16 438.01 C 269.42 436.34 267.86 434.46 266.68 433.83 C 265.50 433.20 263.71 431.62 262.69 430.33 C 261.67 429.04 260.43 428.24 259.92 428.55 C 259.41 428.86 259.00 428.62 259.00 428.01 C 259.00 426.80 253.84 424.37 249.64 423.61 C 247.75 423.27 247.00 423.56 247.00 424.63 C 247.00 425.45 247.44 425.84 247.99 425.51 C 248.55 425.16 248.73 425.55 248.39 426.42 C 247.88 427.76 247.63 427.77 246.34 426.48 C 245.53 425.68 245.15 424.56 245.50 424.01 C 245.84 423.45 245.64 423.00 245.06 423.00 C 244.48 423.00 244.00 423.78 244.00 424.72 C 244.00 426.08 243.64 425.93 242.30 424.02 C 239.90 420.59 240.21 409.77 242.86 404.69 C 246.26 398.17 249.45 395.65 253.48 396.30 C 255.39 396.61 257.18 396.51 257.45 396.08 C 257.72 395.64 260.16 395.50 262.87 395.76 C 268.22 396.28 269.48 395.27 270.08 390.00 C 271.09 381.28 260.65 376.38 250.13 380.64 C 248.27 381.39 245.80 382.01 244.63 382.03 C 242.18 382.07 229.00 394.22 229.00 396.43 C 229.00 397.23 228.55 398.16 228.00 398.50 C 227.45 398.84 227.00 400.13 227.00 401.36 C 227.00 402.59 226.44 404.16 225.75 404.85 C 223.61 406.98 224.10 424.64 226.44 429.75 C 227.51 432.09 228.70 434.00 229.09 434.00 C 229.48 434.00 230.72 435.45 231.84 437.22 C 234.38 441.23 250.06 457.00 251.51 457.00 C 252.09 457.00 253.37 458.35 254.34 460.00 C 255.32 461.65 256.73 463.00 257.49 463.00 C 259.46 463.00 265.98 470.15 265.99 472.32 C 266.00 473.31 266.49 475.04 267.08 476.15 C 267.68 477.26 267.88 478.45 267.55 478.79 C 266.44 479.89 253.53 480.86 252.55 479.91 C 252.03 479.41 250.37 479.00 248.86 479.00 C 247.35 479.00 245.84 478.55 245.50 478.00 C 245.16 477.45 243.67 477.00 242.19 476.99 C 240.59 476.98 237.07 475.19 233.50 472.55 C 230.20 470.11 225.77 466.85 223.65 465.31 C 221.53 463.76 218.98 461.38 217.98 460.00 C 216.97 458.62 213.87 455.09 211.08 452.14 C 208.28 449.19 206.00 446.30 206.00 445.71 C 206.00 445.13 203.75 442.07 201.00 438.91 C 198.25 435.74 196.00 432.85 196.00 432.46 C 196.00 432.08 194.35 429.52 192.33 426.77 C 181.57 412.11 172.42 385.37 175.87 378.65 C 176.48 377.47 177.65 373.85 178.47 370.62 C 180.91 360.99 188.16 351.66 194.50 349.97 C 195.60 349.67 196.91 348.51 197.42 347.38 C 198.37 345.26 198.95 344.83 205.56 341.50 C 207.74 340.40 210.94 338.49 212.67 337.25 C 214.40 336.01 216.70 335.00 217.78 335.00 C 218.87 335.00 220.32 334.33 221.00 333.50 C 221.68 332.68 223.07 332.00 224.09 332.00 C 225.10 332.00 226.41 331.10 226.99 330.01 C 227.58 328.92 228.39 328.13 228.80 328.26 C 229.51 328.49 236.55 325.80 240.24 323.90 C 241.19 323.40 242.60 323.00 243.36 323.00 C 244.13 323.00 245.32 322.32 246.00 321.50 C 246.68 320.68 247.94 320.00 248.79 320.00 C 249.65 320.00 251.07 319.34 251.95 318.54 C 252.84 317.74 256.43 316.84 259.94 316.55 C 263.44 316.26 266.51 315.82 266.76 315.57 C 267.00 315.33 268.27 315.53 269.58 316.03 C 270.88 316.52 274.89 316.65 278.49 316.32 C 284.44 315.76 285.09 315.48 285.67 313.16 C 286.21 311.01 284.66 302.33 283.53 301.20 C 282.55 300.22 261.86 300.17 257.50 301.14 C 252.51 302.24 251.15 302.68 245.51 304.96 C 242.94 306.01 242.37 305.94 241.51 304.48 C 240.95 303.54 239.15 300.96 237.50 298.73 C 229.08 287.36 218.00 266.98 218.00 262.85 C 218.00 262.05 217.58 260.97 217.06 260.45 C 215.08 258.45 213.14 245.13 213.61 236.82 C 214.12 228.07 217.39 215.00 219.07 215.00 C 219.62 215.00 220.39 214.21 220.78 213.25 C 222.28 209.61 226.57 204.09 228.25 203.65 C 229.21 203.39 230.00 202.47 230.00 201.59 C 230.00 200.72 230.41 200.00 230.91 200.00 C 231.40 200.00 233.70 198.43 236.00 196.50 C 238.30 194.58 240.99 193.00 241.97 193.00 C 242.95 193.00 244.27 192.37 244.91 191.61 C 248.05 187.83 260.62 184.19 272.50 183.62 C 275.80 183.47 279.25 183.00 280.16 182.60 C 281.93 181.81 287.12 182.34 289.00 183.50 C 289.62 183.88 291.40 183.66 292.96 183.02 C 295.24 182.07 296.36 182.13 298.68 183.33 C 300.66 184.36 302.09 184.53 303.27 183.87 C 304.37 183.25 306.42 183.31 309.10 184.03 C 312.78 185.02 318.27 184.76 323.21 183.37 C 324.15 183.11 326.27 180.52 327.93 177.62 C 329.59 174.72 332.18 171.03 333.69 169.42 C 335.19 167.82 337.88 164.35 339.66 161.73 C 341.43 159.11 344.18 155.87 345.77 154.54 C 347.35 153.21 349.18 150.34 349.83 148.17 C 350.71 145.23 351.88 143.81 354.40 142.62 C 356.44 141.64 358.03 140.03 358.40 138.52 C 358.75 137.16 360.29 135.38 361.84 134.58 C 363.39 133.78 365.75 131.52 367.08 129.56 C 368.41 127.60 370.30 125.74 371.28 125.42 C 372.25 125.11 373.74 123.80 374.58 122.52 C 376.53 119.54 383.38 115.00 385.92 115.00 C 387.00 115.00 388.16 114.55 388.50 114.00 C 389.36 112.62 394.07 112.75 397.24 114.24 C 400.61 115.83 405.00 126.57 405.00 133.22 C 405.00 135.78 405.43 138.15 405.96 138.48 C 406.49 138.81 406.89 142.09 406.84 145.79 C 406.78 149.48 406.88 159.81 407.05 168.74 C 407.22 177.67 407.06 185.28 406.68 185.65 C 405.41 186.92 405.99 191.06 407.98 194.97 C 409.81 198.55 410.37 198.90 415.23 199.51 C 418.13 199.87 420.95 200.04 421.50 199.89 C 422.55 199.59 426.14 200.53 429.50 201.99 C 430.60 202.47 433.63 203.14 436.23 203.49 C 438.83 203.83 441.22 204.54 441.54 205.06 C 441.86 205.58 442.91 206.00 443.87 206.00 C 444.84 206.00 447.49 206.90 449.76 208.00 C 452.04 209.10 454.55 210.00 455.33 210.00 C 456.11 210.00 457.32 210.67 458.00 211.50 C 458.68 212.32 459.76 213.00 460.39 213.00 C 461.02 213.00 464.01 214.34 467.02 215.99 C 470.03 217.63 473.18 219.25 474.00 219.58 C 474.82 219.91 477.36 221.16 479.64 222.34 C 483.36 224.28 485.79 226.12 494.67 233.75 C 499.36 237.78 507.15 235.98 509.17 230.41 C 509.85 228.54 510.84 227.00 511.39 227.00 C 511.93 227.00 513.31 226.12 514.46 225.03 C 516.84 222.81 522.62 219.42 531.75 214.90 C 535.19 213.20 538.25 211.40 538.56 210.91 C 538.87 210.41 540.46 210.00 542.09 210.00 C 543.73 210.00 546.16 209.29 547.49 208.41 C 548.82 207.54 550.37 207.11 550.94 207.46 C 551.50 207.81 552.98 207.53 554.23 206.83 C 555.48 206.14 556.92 205.70 557.42 205.85 C 557.93 205.99 562.01 205.17 566.49 204.00 C 572.76 202.38 575.76 202.08 579.56 202.70 C 586.57 203.85 588.27 207.52 588.47 221.92 C 588.59 230.94 588.19 233.90 585.75 242.00 C 584.18 247.22 582.53 253.07 582.08 255.00 C 581.63 256.93 580.31 260.88 579.13 263.79 C 577.96 266.69 577.00 269.89 577.00 270.90 C 577.00 271.90 575.66 275.37 574.01 278.61 C 572.37 281.85 571.02 285.24 571.01 286.14 C 571.01 287.04 569.17 289.97 566.94 292.64 C 561.98 298.57 562.08 301.82 567.44 308.36 C 569.40 310.75 571.00 313.07 571.00 313.51 C 571.00 313.95 572.05 315.70 573.34 317.41 C 576.49 321.56 582.00 333.29 582.00 335.82 C 582.00 336.94 582.64 338.49 583.42 339.27 C 584.19 340.05 585.15 342.90 585.54 345.59 C 585.93 348.29 586.68 351.04 587.21 351.70 C 588.37 353.17 587.59 375.48 586.24 379.00 C 585.72 380.38 585.50 382.10 585.76 382.84 C 586.35 384.54 582.19 392.71 580.37 393.41 C 579.62 393.70 578.99 394.74 578.98 395.72 C 578.95 398.98 563.63 413.00 560.09 413.00 C 559.49 413.00 559.00 413.44 559.00 413.98 C 559.00 414.52 557.76 415.26 556.25 415.62 C 554.74 415.98 552.93 416.72 552.24 417.27 C 551.07 418.19 542.03 419.74 534.00 420.38 C 527.76 420.88 509.00 419.25 507.59 418.08 C 506.84 417.45 503.02 416.33 499.10 415.59 C 495.19 414.84 491.31 413.67 490.50 413.00 C 489.68 412.32 488.15 411.99 487.10 412.26 C 485.39 412.71 468.32 407.55 465.26 405.66 C 464.60 405.25 461.84 404.65 459.15 404.33 C 455.05 403.85 453.91 404.09 452.17 405.83 C 450.01 407.99 450.00 410.14 452.13 415.30 C 453.24 417.99 457.95 420.78 462.50 421.44 C 464.77 421.77 467.17 422.60 471.50 424.53 C 473.15 425.27 475.29 426.11 476.25 426.40 C 477.21 426.70 478.00 427.79 478.00 428.83 C 478.00 429.87 479.35 432.42 481.00 434.50 C 482.68 436.62 484.00 439.48 484.00 441.02 C 484.00 442.52 484.68 444.32 485.50 445.00 C 486.32 445.68 487.00 447.11 487.00 448.17 C 487.00 449.23 487.71 451.47 488.58 453.15 C 490.11 456.12 490.67 457.89 491.66 463.00 C 491.93 464.38 492.55 466.40 493.03 467.50 C 495.20 472.44 496.11 478.47 496.65 491.50 L 497.24 505.50 L 492.38 510.87 C 488.04 515.66 479.26 521.00 475.70 521.00 C 475.13 521.00 473.94 521.65 473.05 522.45 C 472.17 523.25 468.99 524.36 465.98 524.92 C 462.96 525.48 455.55 527.05 449.50 528.42 C 443.45 529.78 436.44 530.92 433.92 530.95 C 431.40 530.98 429.03 531.31 428.66 531.68 C 428.28 532.05 424.27 532.50 419.74 532.67 C 415.21 532.84 408.80 533.22 405.50 533.51 C 394.48 534.50 390.32 534.36 375.00 532.46 C 369.32 531.76 362.00 529.18 362.00 527.87 C 362.00 527.47 361.21 526.87 360.25 526.54 C 359.29 526.21 357.20 524.81 355.62 523.41 C 353.10 521.19 352.88 520.57 353.85 518.44 C 354.64 516.69 355.76 516.00 357.78 516.00 C 359.33 516.00 361.09 515.51 361.70 514.90 C 362.85 513.75 369.75 512.82 376.50 512.92 C 378.70 512.95 386.93 513.08 394.79 513.20 C 407.60 513.40 409.51 513.20 413.29 511.30 C 415.60 510.14 420.18 508.12 423.46 506.81 C 428.58 504.77 430.19 503.44 434.75 497.47 C 437.67 493.63 440.70 490.02 441.48 489.43 C 442.26 488.84 443.77 485.01 444.84 480.93 C 446.92 472.99 446.80 462.82 444.59 460.00 C 443.94 459.18 442.80 457.28 442.05 455.78 C 439.60 450.86 436.33 448.62 431.39 448.45 C 427.13 448.31 426.66 448.56 424.26 452.18 C 422.00 455.59 421.85 456.35 422.98 458.45 C 423.68 459.77 425.30 461.11 426.57 461.43 C 432.73 462.97 429.03 482.18 421.31 488.74 C 419.21 490.51 416.46 491.98 415.19 491.99 C 413.68 491.99 413.13 492.41 413.61 493.17 C 414.10 493.97 413.77 494.13 412.58 493.67 C 411.62 493.30 410.54 492.97 410.17 492.92 C 409.80 492.88 411.07 492.24 413.00 491.49 C 416.26 490.22 416.34 490.08 414.25 489.45 C 413.01 489.07 412.00 488.34 412.00 487.83 C 412.00 487.31 409.52 485.76 406.50 484.37 C 403.48 482.99 401.00 481.44 401.00 480.93 C 401.00 480.42 399.92 480.00 398.61 480.00 C 397.29 480.00 395.95 479.32 395.64 478.50 C 395.29 477.58 393.77 477.00 391.73 477.00 C 389.90 477.00 387.84 476.44 387.16 475.76 C 386.17 474.77 385.74 474.81 385.03 475.95 C 384.32 477.10 383.46 477.17 380.62 476.30 C 378.10 475.52 376.99 475.52 376.73 476.30 C 376.54 476.89 373.70 477.47 370.44 477.58 C 362.60 477.86 351.92 479.68 350.63 480.97 C 350.06 481.54 348.37 482.00 346.86 482.00 C 345.35 482.00 343.85 482.44 343.52 482.97 C 343.19 483.50 340.58 485.14 337.71 486.61 C 334.85 488.08 331.29 489.92 329.80 490.69 C 328.32 491.46 326.82 492.98 326.48 494.06 C 326.14 495.14 325.47 495.79 325.00 495.50 C 323.89 494.81 321.00 498.92 321.00 501.19 C 321.00 502.15 320.10 503.41 319.00 504.00 C 317.90 504.59 317.00 505.56 317.00 506.17 C 317.00 506.77 316.21 507.99 315.24 508.88 C 314.28 509.77 313.33 511.85 313.14 513.50 C 312.95 515.15 312.17 518.36 311.40 520.63 C 309.55 526.09 309.83 529.45 312.62 535.62 C 313.89 538.44 314.75 541.70 314.53 542.87 C 314.30 544.04 314.51 545.00 314.99 545.00 C 315.47 545.00 316.13 545.83 316.45 546.84 C 317.17 549.10 322.34 555.00 323.60 555.00 C 324.11 555.00 325.67 556.07 327.08 557.38 C 328.49 558.68 330.63 560.06 331.82 560.44 C 333.02 560.82 334.00 561.49 334.00 561.93 C 334.00 562.37 336.81 563.96 340.25 565.47 C 343.69 566.99 347.81 568.85 349.40 569.61 C 351.00 570.37 353.48 571.00 354.91 571.00 C 356.34 571.00 359.09 571.49 361.01 572.10 C 366.17 573.72 377.00 574.38 377.00 573.07 C 377.00 571.88 383.13 571.79 387.00 572.94 C 388.46 573.37 390.54 573.18 392.00 572.47 C 393.38 571.81 396.20 570.96 398.28 570.58 C 400.36 570.21 401.79 569.47 401.47 568.95 C 401.14 568.42 402.36 567.99 404.19 567.98 C 408.28 567.97 409.64 567.14 410.82 563.97 C 411.63 561.80 411.83 562.17 412.47 567.00 C 412.87 570.02 413.77 573.85 414.45 575.50 C 415.14 577.15 416.24 580.73 416.90 583.46 C 417.56 586.18 418.71 589.78 419.46 591.46 C 420.21 593.13 421.04 595.62 421.31 597.00 C 421.99 600.48 426.14 611.84 429.54 619.50 C 430.76 622.26 434.00 631.63 434.00 632.40 C 434.00 632.68 417.77 632.23 414.50 631.86 C 413.95 631.80 412.36 632.05 410.97 632.43 C 409.58 632.80 408.08 632.74 407.64 632.30Z"/></g>
<g fill="#E2B2BBFF">
<path d="M 362.00 572.33 C 360.07 571.66 357.11 571.09 355.40 571.06 C 353.70 571.03 351.00 570.37 349.40 569.61 C 347.81 568.85 343.69 566.99 340.25 565.47 C 336.81 563.96 334.00 562.37 334.00 561.93 C 334.00 561.49 333.02 560.82 331.82 560.44 C 330.63 560.06 328.49 558.68 327.08 557.38 C 325.67 556.07 324.11 555.00 323.60 555.00 C 322.34 555.00 317.17 549.10 316.45 546.84 C 316.13 545.83 315.47 545.00 314.99 545.00 C 314.51 545.00 314.30 544.04 314.53 542.87 C 314.75 541.70 313.89 538.44 312.62 535.62 C 309.83 529.45 309.55 526.09 311.40 520.63 C 312.17 518.36 312.95 515.15 313.14 513.50 C 313.33 511.85 314.28 509.77 315.24 508.88 C 316.21 507.99 317.00 506.77 317.00 506.17 C 317.00 505.56 317.90 504.59 319.00 504.00 C 320.10 503.41 321.00 502.15 321.00 501.19 C 321.00 498.92 323.89 494.81 325.00 495.50 C 325.47 495.79 326.14 495.14 326.48 494.06 C 326.82 492.98 328.32 491.46 329.80 490.69 C 331.29 489.92 334.85 488.08 337.71 486.61 C 340.58 485.14 343.19 483.50 343.52 482.97 C 343.85 482.44 345.35 482.00 346.86 482.00 C 348.37 482.00 350.06 481.54 350.63 480.97 C 351.92 479.68 362.60 477.86 370.44 477.58 C 373.70 477.47 376.54 476.89 376.73 476.30 C 376.99 475.52 378.10 475.52 380.62 476.30 C 383.46 477.17 384.32 477.10 385.03 475.95 C 385.74 474.81 386.17 474.77 387.16 475.76 C 387.84 476.44 389.90 477.00 391.73 477.00 C 393.77 477.00 395.29 477.58 395.64 478.50 C 395.95 479.32 397.29 480.00 398.61 480.00 C 399.92 480.00 401.00 480.42 401.00 480.93 C 401.00 481.44 403.48 482.99 406.50 484.37 C 409.52 485.76 412.00 487.31 412.00 487.83 C 412.00 488.34 413.01 489.07 414.25 489.45 C 416.34 490.08 416.26 490.22 413.00 491.49 C 411.07 492.24 410.06 492.88 410.75 492.92 C 411.44 492.97 412.00 493.48 412.00 494.06 C 412.00 494.64 411.61 494.88 411.13 494.58 C 410.65 494.29 408.62 494.84 406.61 495.82 C 403.69 497.24 401.65 497.46 396.38 496.92 C 392.76 496.54 388.95 496.46 387.90 496.74 C 386.86 497.01 386.00 496.79 386.00 496.26 C 386.00 495.72 384.81 495.51 383.35 495.78 C 381.68 496.10 380.94 495.91 381.34 495.26 C 382.10 494.03 379.26 491.41 378.25 492.41 C 377.87 492.80 378.17 493.49 378.91 493.94 C 379.90 494.56 379.28 495.25 376.60 496.52 C 373.12 498.17 372.85 498.17 371.01 496.51 C 369.20 494.87 368.80 494.86 365.06 496.36 C 362.86 497.24 359.76 498.19 358.18 498.47 C 353.79 499.24 348.21 501.81 347.27 503.48 C 346.81 504.31 345.18 505.09 343.65 505.22 C 342.12 505.34 340.34 506.13 339.69 506.97 C 338.65 508.31 338.72 508.33 340.25 507.13 C 341.34 506.28 342.00 506.17 342.00 506.84 C 342.00 508.26 338.47 510.14 337.55 509.21 C 337.16 508.82 336.92 508.95 337.04 509.50 C 337.62 512.41 336.95 513.31 335.58 511.44 C 333.97 509.24 333.53 509.47 332.56 513.00 C 332.12 514.58 332.20 515.03 332.76 514.22 C 333.69 512.89 337.00 513.56 337.00 515.08 C 337.00 515.55 336.32 515.68 335.50 515.36 C 334.54 514.99 334.00 515.38 334.00 516.45 C 334.00 517.37 333.55 517.84 333.00 517.50 C 332.45 517.16 332.00 517.61 332.00 518.50 C 332.00 519.39 332.45 519.84 333.00 519.50 C 335.02 518.25 333.93 520.27 331.58 522.11 C 329.41 523.82 329.27 524.38 330.17 527.64 C 330.72 529.63 330.95 532.10 330.68 533.13 C 330.17 535.05 333.28 538.94 338.00 542.31 C 339.38 543.29 339.82 543.77 339.00 543.37 C 337.97 542.88 338.09 543.33 339.38 544.80 C 340.42 545.99 341.66 546.71 342.13 546.42 C 342.61 546.12 343.00 546.43 343.00 547.11 C 343.00 547.78 343.27 548.06 343.61 547.73 C 343.94 547.39 345.35 548.18 346.75 549.47 C 348.18 550.80 351.18 552.10 353.66 552.47 C 356.07 552.83 357.85 553.44 357.61 553.81 C 357.38 554.19 358.16 554.56 359.35 554.64 C 360.53 554.72 364.63 555.30 368.46 555.92 C 372.76 556.62 376.39 556.71 377.97 556.16 C 379.77 555.53 380.89 555.66 381.76 556.59 C 382.78 557.68 383.54 557.68 386.17 556.57 C 389.36 555.23 391.35 551.54 388.24 552.74 C 387.20 553.14 386.92 552.94 387.39 552.17 C 388.50 550.38 390.73 550.77 392.30 553.02 C 393.63 554.91 393.81 554.93 395.11 553.33 C 396.35 551.81 396.29 551.71 394.50 552.37 C 393.21 552.85 392.86 552.78 393.50 552.16 C 394.90 550.82 409.63 550.21 409.79 551.49 C 409.86 552.05 410.34 554.50 410.86 556.94 C 411.84 561.55 410.94 565.78 408.69 567.21 C 408.03 567.63 406.01 567.98 404.19 567.98 C 402.36 567.99 401.14 568.42 401.47 568.95 C 401.79 569.47 400.36 570.21 398.28 570.58 C 396.20 570.96 393.38 571.81 392.00 572.47 C 390.54 573.18 388.46 573.37 387.00 572.94 C 383.20 571.82 377.00 571.87 377.00 573.03 C 377.00 574.39 366.52 573.91 362.00 572.33Z"/></g>
<g fill="#E2B2BBFF">
<path d="M 237.50 516.45 C 235.22 515.49 234.16 515.46 233.06 516.34 C 231.94 517.24 231.79 517.22 232.37 516.25 C 232.87 515.41 232.37 514.94 230.81 514.83 C 225.01 514.40 217.70 512.96 217.00 512.11 C 216.03 510.92 212.01 509.00 210.51 509.00 C 209.68 509.00 209.00 508.31 209.00 507.47 C 209.00 506.63 208.21 505.64 207.25 505.29 C 203.79 504.00 200.00 500.59 200.00 498.76 C 200.00 497.74 198.88 495.86 197.50 494.59 C 195.99 493.19 195.00 491.17 195.00 489.50 C 195.00 487.97 194.21 486.11 193.25 485.36 C 191.60 484.08 191.61 484.03 193.36 484.65 C 195.03 485.23 195.19 484.83 194.86 480.75 C 194.66 478.22 194.90 476.44 195.39 476.74 C 195.89 477.05 196.06 476.09 195.78 474.62 C 195.35 472.39 195.57 472.05 197.08 472.52 C 198.67 473.03 198.78 472.73 198.01 470.05 C 197.31 467.58 197.44 467.00 198.69 467.00 C 199.97 467.00 200.02 466.73 198.98 465.48 C 197.06 463.16 198.20 462.93 200.86 465.09 C 202.16 466.14 202.83 467.00 202.36 467.01 C 201.89 467.01 204.88 470.16 209.00 474.00 C 213.12 477.84 216.19 480.99 215.82 480.99 C 215.45 481.00 214.42 480.28 213.55 479.40 C 211.86 477.72 209.00 478.14 209.00 480.08 C 209.00 480.70 209.65 480.96 210.45 480.66 C 211.41 480.29 211.71 480.58 211.35 481.54 C 211.04 482.33 211.49 483.25 212.33 483.57 C 213.18 483.90 213.63 484.81 213.32 485.60 C 213.02 486.39 213.83 488.59 215.12 490.47 C 217.33 493.69 222.23 495.74 226.74 495.34 C 227.42 495.28 227.70 495.68 227.36 496.22 C 226.37 497.83 229.06 498.87 231.89 497.98 C 236.98 496.39 240.61 495.87 239.00 496.95 C 238.18 497.51 236.38 498.02 235.00 498.09 C 232.97 498.19 233.26 498.45 236.50 499.51 C 240.02 500.65 240.68 500.61 242.00 499.14 C 243.89 497.03 245.41 497.05 247.92 499.20 C 249.79 500.80 249.93 500.79 250.49 499.03 C 250.98 497.50 252.12 497.15 256.79 497.12 C 264.92 497.07 275.35 493.20 278.97 488.90 L 281.83 485.50 L 282.95 488.42 C 283.75 490.48 283.76 491.53 283.00 492.00 C 282.41 492.36 282.25 493.49 282.64 494.50 C 283.18 495.91 282.98 496.21 281.80 495.75 C 280.47 495.24 278.13 498.09 278.32 500.00 C 278.38 500.67 273.42 506.00 272.74 506.00 C 272.44 506.00 269.92 507.53 267.14 509.41 C 264.36 511.28 260.15 513.13 257.79 513.53 C 255.43 513.92 253.26 514.62 252.97 515.07 C 252.69 515.52 250.44 515.99 247.97 516.11 C 245.51 516.23 242.82 516.64 242.00 517.02 C 241.18 517.41 239.15 517.15 237.50 516.45Z"/></g>
<g fill="#E79399FF">
<path d="M 381.76 556.59 C 380.89 555.66 379.77 555.53 377.97 556.16 C 376.39 556.71 372.76 556.62 368.46 555.92 C 364.63 555.30 360.53 554.72 359.35 554.64 C 358.16 554.56 357.38 554.19 357.61 553.81 C 357.85 553.44 356.07 552.83 353.66 552.47 C 351.18 552.10 348.18 550.80 346.75 549.47 C 345.35 548.18 343.94 547.39 343.61 547.73 C 343.27 548.06 343.00 547.78 343.00 547.11 C 343.00 546.43 342.61 546.12 342.13 546.42 C 341.66 546.71 340.42 545.99 339.38 544.80 C 338.09 543.33 337.97 542.88 339.00 543.37 C 339.82 543.77 339.38 543.29 338.00 542.31 C 333.28 538.94 330.17 535.05 330.68 533.13 C 330.95 532.10 330.72 529.63 330.17 527.64 C 329.27 524.38 329.41 523.82 331.58 522.11 C 333.93 520.27 335.02 518.25 333.00 519.50 C 332.45 519.84 332.00 519.39 332.00 518.50 C 332.00 517.61 332.45 517.16 333.00 517.50 C 333.55 517.84 334.00 517.42 334.00 516.56 C 334.00 515.70 334.42 515.00 334.94 515.00 C 336.38 515.00 337.16 516.78 336.03 517.48 C 334.82 518.23 335.07 523.00 336.33 523.00 C 336.81 523.00 336.94 523.71 336.60 524.59 C 335.91 526.40 339.32 531.30 340.53 530.22 C 340.96 529.82 341.00 530.05 340.62 530.72 C 340.22 531.42 340.84 532.71 342.07 533.72 C 343.25 534.70 344.85 536.09 345.61 536.82 C 346.38 537.55 347.00 537.85 347.00 537.50 C 347.00 537.15 347.71 537.56 348.57 538.43 C 349.44 539.29 350.81 540.00 351.63 540.00 C 352.51 540.00 352.82 540.48 352.39 541.17 C 351.91 541.96 352.22 542.13 353.34 541.70 C 354.40 541.29 355.00 541.57 355.00 542.45 C 355.00 543.22 356.46 544.13 358.25 544.50 C 363.85 545.62 365.05 546.12 364.46 547.06 C 364.14 547.58 365.26 547.70 367.11 547.33 C 369.40 546.87 370.11 547.02 369.60 547.84 C 368.96 548.88 372.33 549.47 377.75 549.27 C 378.44 549.24 379.00 549.65 379.00 550.17 C 379.00 550.69 379.42 550.86 379.93 550.55 C 380.43 550.23 382.02 550.51 383.45 551.16 C 385.44 552.07 386.33 552.07 387.23 551.17 C 388.99 549.41 394.35 549.64 393.66 551.45 C 393.26 552.48 393.59 552.72 394.80 552.26 C 396.29 551.70 396.33 551.84 395.11 553.33 C 393.81 554.93 393.63 554.91 392.30 553.02 C 390.73 550.77 388.50 550.38 387.39 552.17 C 386.92 552.94 387.20 553.14 388.24 552.74 C 391.35 551.54 389.36 555.23 386.17 556.57 C 383.54 557.68 382.78 557.68 381.76 556.59Z"/></g>
<g fill="#E2B2BBFF">
<path d="M 281.53 469.05 C 281.21 468.53 280.88 466.48 280.81 464.51 C 280.73 462.53 280.23 460.64 279.68 460.30 C 279.08 459.93 279.01 460.21 279.50 461.00 C 280.02 461.85 279.92 462.07 279.20 461.62 C 278.59 461.24 278.32 460.33 278.60 459.59 C 278.92 458.76 278.17 458.01 276.66 457.63 C 275.11 457.24 273.81 455.90 273.15 454.01 C 272.57 452.34 271.38 451.00 270.49 451.00 C 269.53 451.00 269.17 450.54 269.60 449.85 C 269.99 449.21 269.88 448.96 269.36 449.28 C 268.07 450.07 266.83 449.12 264.12 445.23 C 262.86 443.43 260.16 441.10 258.12 440.06 C 256.08 439.02 252.55 436.15 250.27 433.68 C 248.00 431.21 245.81 429.49 245.41 429.85 C 245.01 430.21 244.97 429.98 245.33 429.35 C 245.69 428.72 245.35 427.96 244.57 427.67 C 243.03 427.07 243.56 423.00 245.18 423.00 C 245.69 423.00 245.84 423.45 245.50 424.01 C 245.15 424.56 245.53 425.68 246.34 426.48 C 247.63 427.77 247.88 427.76 248.39 426.42 C 248.73 425.55 248.55 425.16 247.99 425.51 C 247.44 425.84 247.00 425.45 247.00 424.63 C 247.00 423.56 247.75 423.27 249.64 423.61 C 253.84 424.37 259.00 426.80 259.00 428.01 C 259.00 428.62 259.41 428.86 259.92 428.55 C 260.43 428.24 261.67 429.04 262.69 430.33 C 263.71 431.62 265.50 433.20 266.68 433.83 C 267.86 434.46 269.42 436.34 270.16 438.01 C 270.90 439.68 272.71 441.58 274.18 442.24 C 275.65 442.89 276.62 443.80 276.34 444.26 C 276.06 444.71 276.36 445.72 277.00 446.50 C 277.64 447.28 277.83 448.46 277.42 449.13 C 276.93 449.92 277.16 450.15 278.10 449.79 C 279.23 449.36 279.46 450.12 279.21 453.37 C 278.97 456.37 279.16 457.10 279.89 456.03 C 281.03 454.36 281.14 454.45 282.80 458.31 C 283.56 460.08 283.68 461.74 283.11 462.81 C 282.14 464.64 284.16 467.44 285.55 466.19 C 285.97 465.81 286.02 466.32 285.66 467.33 C 285.30 468.34 285.00 469.35 285.00 469.58 C 285.00 470.42 282.10 469.97 281.53 469.05Z"/></g>
<g fill="#E79399FF">
<path d="M 236.50 499.51 C 233.26 498.45 232.97 498.19 235.00 498.09 C 236.38 498.02 238.18 497.51 239.00 496.95 C 240.61 495.87 236.98 496.39 231.89 497.98 C 229.06 498.87 226.37 497.83 227.36 496.22 C 227.70 495.68 227.42 495.28 226.74 495.34 C 222.23 495.74 217.33 493.69 215.12 490.47 C 213.83 488.59 213.02 486.39 213.32 485.60 C 213.63 484.81 213.18 483.90 212.33 483.57 C 211.49 483.25 211.04 482.33 211.35 481.54 C 211.71 480.58 211.41 480.29 210.45 480.66 C 209.65 480.96 209.00 480.67 209.00 480.01 C 209.00 479.35 209.89 478.58 210.99 478.29 C 212.08 478.01 212.69 477.30 212.33 476.73 C 211.97 476.14 212.17 475.99 212.80 476.38 C 213.41 476.76 213.63 477.80 213.28 478.71 C 212.80 479.95 213.07 480.19 214.38 479.69 C 215.41 479.29 215.86 479.42 215.49 480.01 C 215.16 480.56 215.58 481.00 216.44 481.00 C 217.30 481.00 218.00 481.44 218.00 481.97 C 218.00 482.50 218.68 482.68 219.50 482.36 C 220.46 481.99 221.00 482.38 221.00 483.45 C 221.00 484.37 221.42 484.86 221.93 484.54 C 222.44 484.23 223.50 484.87 224.27 485.98 C 225.05 487.08 225.98 487.69 226.34 487.33 C 226.70 486.96 227.00 487.24 227.00 487.94 C 227.00 488.66 227.65 488.96 228.50 488.64 C 229.32 488.32 230.00 488.50 230.00 489.03 C 230.00 489.56 230.56 489.89 231.25 489.75 C 231.94 489.61 232.39 490.06 232.25 490.75 C 232.09 491.53 233.13 492.00 235.00 492.00 C 236.70 492.00 237.89 492.49 237.75 493.12 C 237.61 493.74 238.13 494.48 238.89 494.75 C 239.68 495.04 240.00 494.81 239.64 494.22 C 238.84 492.93 242.90 493.83 244.94 495.39 C 246.01 496.21 246.20 496.20 245.69 495.34 C 245.23 494.57 245.66 494.36 246.99 494.71 C 248.08 494.99 248.68 495.70 248.32 496.28 C 247.92 496.94 248.30 497.10 249.34 496.70 C 251.08 496.03 251.39 496.81 250.42 499.34 C 249.92 500.66 249.60 500.63 247.89 499.17 C 245.41 497.05 243.89 497.04 242.00 499.14 C 240.68 500.61 240.02 500.65 236.50 499.51Z"/></g>
</svg>
